<?xml version="1.0" encoding="UTF-8"?>
<svg id="Layer_1" data-name="Layer 1" xmlns="http://www.w3.org/2000/svg" xmlns:xlink="http://www.w3.org/1999/xlink" viewBox="0 0 4000 4000">
  <defs>
    <style>
      .cls-1 {
        fill: url(#linear-gradient-2);
      }

      .cls-2 {
        clip-path: url(#clippath-1);
      }

      .cls-3 {
        fill: url(#linear-gradient);
        stroke: blue;
        stroke-miterlimit: 10;
      }

      .cls-4 {
        fill: #1e003d;
        fill-rule: evenodd;
        opacity: .3;
      }

      .cls-5 {
        clip-path: url(#clippath);
      }

      .cls-6 {
        clip-rule: evenodd;
      }

      .cls-6, .cls-7 {
        fill: none;
      }
    </style>
    <clipPath id="clippath">
      <path class="cls-6" d="M1351.86,1895.9c90.17,258.7,222.61,499.16,362.35,441.27,131.16-54.34,139.26-111.23,262.88-142.62,123.61,31.39,131.72,88.29,262.88,142.62,191.68,79.41,369.67-402.54,443.6-722.92,21.93-95.04,29.29-181.41,24.82-258.17l-216.87,216.87c3.39,11.02,5.13,22.52,5.13,34.16,0,64.03-51.92,115.95-115.94,115.95-39.02,0-74.87-19.54-96.17-51.14h-457.31c-20.88,33.64-57.92,54.8-98.53,54.8-20.32,0-40.05-5.28-57.44-15.21l-319.39,184.4Zm475.99-867.65c-116.38-53.4-235.49-131.45-387.46-43.82-151.98,87.63-243.71,309.43-169.77,629.82,15.55,67.38,35.71,141.91,59.62,216.84l419.98-251.7,213.17,7.62h236.01l156.83-7.62,111.15-82.22,167.49-167.49,60.72-70.43c-27.85-130.95-94.98-224.79-181.77-274.82-151.98-87.63-271.09-9.58-387.47,43.82-93.31,42.82-205.16,42.82-298.48,0Z"/>
    </clipPath>
    <linearGradient id="linear-gradient" x1="1499.27" y1="2126.04" x2="2574.76" y2="1017.86" gradientUnits="userSpaceOnUse">
      <stop offset=".06" stop-color="#03f"/>
      <stop offset=".99" stop-color="#008dff"/>
    </linearGradient>
    <clipPath id="clippath-1">
      <path class="cls-6" d="M2827.4,1044.72c48.24,0,87.35,39.11,87.35,87.36s-39.11,87.35-87.35,87.35c-10.77,0-21.08-1.95-30.61-5.52l-338.92,338.91c6.49,12.21,10.18,26.15,10.18,40.95,0,48.25-39.11,87.36-87.36,87.36-35.32,0-65.75-20.97-79.51-51.14h-491.41c-12.91,32.12-44.34,54.8-81.08,54.8-21.36,0-40.93-7.67-56.1-20.4l-412.98,238.43c.23,2.58,.35,5.19,.35,7.82,0,48.24-39.11,87.35-87.36,87.35s-87.35-39.11-87.35-87.35,39.11-87.35,87.35-87.35c19.13,0,36.8,6.14,51.19,16.57l417.56-241.08v-1.34c-.01-48.24,39.1-87.35,87.34-87.35,33.87,0,63.25,19.28,77.74,47.47h494.75c13.76-30.17,44.19-51.14,79.51-51.14,6.55,0,12.92,.72,19.05,2.09l345.82-345.82c-3.57-9.53-5.52-19.84-5.52-30.61,0-48.25,39.11-87.36,87.36-87.36"/>
    </clipPath>
    <linearGradient id="linear-gradient-2" x1="1184.13" y1="2617.09" x2="2773.71" y2="482.23" gradientUnits="userSpaceOnUse">
      <stop offset="0" stop-color="blue"/>
      <stop offset="1" stop-color="aqua"/>
    </linearGradient>
  </defs>
  <g class="cls-5">
    <rect class="cls-3" x="1196.68" y="896.8" width="1516.18" height="1519.78"/>
  </g>
  <path class="cls-4" d="M1309.5,1763.06c6.55,22.51,13.47,45.25,20.74,68.02l419.98-251.7,213.17,7.62h236.01l156.83-7.62,111.15-82.22,167.49-167.49,60.72-70.43c-4.75-22.33-10.64-43.59-17.58-63.73l-288.36,288.36c-2.98-.23-5.96-.34-8.94-.34-39.02,0-74.87,19.54-96.16,51.13h-462.26c-21.6-29.52-56.18-47.47-93.58-47.47-58.67,0-107.18,43.61-114.89,100.17l-304.3,175.69Z"/>
  <g class="cls-2">
    <rect class="cls-1" x="1085.25" y="1044.72" width="1829.5" height="953.27"/>
  </g>
  <path class="cls-4" d="M1827.22,1671.91c-20.88,33.64-57.92,54.8-98.53,54.8-20.32,0-40.05-5.28-57.44-15.21l-242.16,139.81c4.75-2.74,240.38-117.02,240.38-117.02,0,0,89.83,63.19,178.91-31.97l419.48-.76s60.15,91.36,188.82,43.39c0,0,92.11-51.77,76.89-141.6l171.79-119.69c4.47-45.04,5.35-87.62,3.02-127.59l-216.87,216.87c3.39,11.02,5.13,22.52,5.13,34.16,0,64.03-51.92,115.95-115.94,115.95-39.02,0-74.87-19.54-96.17-51.14h-457.31Z"/>
  <polyline class="cls-7" points="0 4000 4000 4000 4000 0 0 0"/>
</svg>